<svg id="visual" viewBox="0 0 900 600" width="900" height="600" xmlns="http://www.w3.org/2000/svg" xmlns:xlink="http://www.w3.org/1999/xlink" version="1.1"><path d="M0 43L21.5 38C43 33 86 23 128.8 29C171.7 35 214.3 57 257.2 67C300 77 343 75 385.8 66C428.7 57 471.3 41 514.2 34C557 27 600 29 642.8 33C685.7 37 728.3 43 771.2 44C814 45 857 41 878.5 39L900 37L900 0L878.5 0C857 0 814 0 771.2 0C728.3 0 685.7 0 642.8 0C600 0 557 0 514.2 0C471.3 0 428.7 0 385.8 0C343 0 300 0 257.2 0C214.3 0 171.7 0 128.8 0C86 0 43 0 21.5 0L0 0Z" fill="#004cbb"></path><path d="M0 217L21.5 198C43 179 86 141 128.8 137C171.7 133 214.3 163 257.2 193C300 223 343 253 385.8 268C428.7 283 471.3 283 514.2 256C557 229 600 175 642.8 160C685.7 145 728.3 169 771.2 171C814 173 857 153 878.5 143L900 133L900 35L878.5 37C857 39 814 43 771.2 42C728.3 41 685.7 35 642.8 31C600 27 557 25 514.2 32C471.3 39 428.7 55 385.8 64C343 73 300 75 257.2 65C214.3 55 171.7 33 128.8 27C86 21 43 31 21.5 36L0 41Z" fill="#005feb"></path><path d="M0 247L21.5 239C43 231 86 215 128.8 208C171.7 201 214.3 203 257.2 225C300 247 343 289 385.8 311C428.7 333 471.3 335 514.2 305C557 275 600 213 642.8 197C685.7 181 728.3 211 771.2 210C814 209 857 177 878.5 161L900 145L900 131L878.5 141C857 151 814 171 771.2 169C728.3 167 685.7 143 642.8 158C600 173 557 227 514.2 254C471.3 281 428.7 281 385.8 266C343 251 300 221 257.2 191C214.3 161 171.7 131 128.8 135C86 139 43 177 21.5 196L0 215Z" fill="#367cff"></path><path d="M0 295L21.5 289C43 283 86 271 128.8 265C171.7 259 214.3 259 257.2 274C300 289 343 319 385.8 345C428.7 371 471.3 393 514.2 369C557 345 600 275 642.8 260C685.7 245 728.3 285 771.2 293C814 301 857 277 878.5 265L900 253L900 143L878.5 159C857 175 814 207 771.2 208C728.3 209 685.7 179 642.8 195C600 211 557 273 514.2 303C471.3 333 428.7 331 385.8 309C343 287 300 245 257.2 223C214.3 201 171.7 199 128.8 206C86 213 43 229 21.5 237L0 245Z" fill="#6198ff"></path><path d="M0 403L21.5 384C43 365 86 327 128.8 320C171.7 313 214.3 337 257.2 352C300 367 343 373 385.8 388C428.7 403 471.3 427 514.2 427C557 427 600 403 642.8 387C685.7 371 728.3 363 771.2 359C814 355 857 355 878.5 355L900 355L900 251L878.5 263C857 275 814 299 771.2 291C728.3 283 685.7 243 642.8 258C600 273 557 343 514.2 367C471.3 391 428.7 369 385.8 343C343 317 300 287 257.2 272C214.3 257 171.7 257 128.8 263C86 269 43 281 21.5 287L0 293Z" fill="#6198ff"></path><path d="M0 499L21.5 500C43 501 86 503 128.8 507C171.7 511 214.3 517 257.2 517C300 517 343 511 385.8 508C428.7 505 471.3 505 514.2 512C557 519 600 533 642.8 535C685.7 537 728.3 527 771.2 514C814 501 857 485 878.5 477L900 469L900 353L878.5 353C857 353 814 353 771.2 357C728.3 361 685.7 369 642.8 385C600 401 557 425 514.2 425C471.3 425 428.7 401 385.8 386C343 371 300 365 257.2 350C214.3 335 171.7 311 128.8 318C86 325 43 363 21.5 382L0 401Z" fill="#367cff"></path><path d="M0 535L21.5 534C43 533 86 531 128.8 540C171.7 549 214.3 569 257.2 575C300 581 343 573 385.8 569C428.7 565 471.3 565 514.2 566C557 567 600 569 642.8 571C685.7 573 728.3 575 771.2 569C814 563 857 549 878.5 542L900 535L900 467L878.5 475C857 483 814 499 771.2 512C728.3 525 685.7 535 642.8 533C600 531 557 517 514.2 510C471.3 503 428.7 503 385.8 506C343 509 300 515 257.2 515C214.3 515 171.7 509 128.8 505C86 501 43 499 21.5 498L0 497Z" fill="#005feb"></path><path d="M0 601L21.5 601C43 601 86 601 128.8 601C171.7 601 214.3 601 257.2 601C300 601 343 601 385.8 601C428.7 601 471.3 601 514.2 601C557 601 600 601 642.8 601C685.7 601 728.3 601 771.2 601C814 601 857 601 878.5 601L900 601L900 533L878.5 540C857 547 814 561 771.2 567C728.3 573 685.7 571 642.8 569C600 567 557 565 514.2 564C471.3 563 428.7 563 385.8 567C343 571 300 579 257.2 573C214.3 567 171.7 547 128.8 538C86 529 43 531 21.5 532L0 533Z" fill="#004cbb"></path></svg>