<svg width="50" height="57" viewBox="0 0 50 57" fill="none" xmlns="http://www.w3.org/2000/svg">
<g id="Discord">
<rect id="Rectangle 1" x="5.66663" y="6.83398" width="36.6667" height="33" fill="white"/>
<mask id="mask0" style="mask-type:alpha" maskUnits="userSpaceOnUse" x="0" y="0" width="50" height="57">
<path id="path-1" fill-rule="evenodd" clip-rule="evenodd" d="M0.499244 26.5C0.499244 -3.49993 -0.301264 0.999954 23.9993 0.999954C48.2998 0.999954 48.5 -3.50052 48.5 21.5C48.5 60.5 55 57.5 23.9993 56.5005C0.499245 49.0001 0.499244 50.8005 0.499244 26.5Z" fill="white"/>
</mask>
<g mask="url(#mask0)">
<g id="Discord-Logo-Color">
<g id="Shape">
<path id="Shape_2" fill-rule="evenodd" clip-rule="evenodd" d="M27.5416 27.0005C27.5416 25.3885 28.7016 24.0671 30.1708 24.0671C31.64 24.0671 32.8 25.3885 32.8 27.0005C32.8 28.6125 31.64 29.9338 30.1708 29.9338C28.7273 29.9338 27.5416 28.6125 27.5416 27.0005ZM18.1333 27.0005C18.1333 25.3885 19.2932 24.0672 20.7625 24.0672C22.2317 24.0672 23.4174 25.3885 23.3916 27.0005C23.3916 28.6125 22.2317 29.9338 20.7625 29.9338C19.319 29.9338 18.1333 28.6125 18.1333 27.0005Z" fill="#7289DA"/>
<path id="Shape_3" fill-rule="evenodd" clip-rule="evenodd" d="M7.3261 2.06714H42.1406C45.0764 2.06714 47.4667 4.42847 47.4667 7.35447V53.4005L41.8808 48.5238L38.7371 45.6491L35.4115 42.5948L36.7885 47.3431H7.3261C4.39025 47.3431 2 44.9818 2 42.0558V7.35447C2 4.42847 4.39025 2.06714 7.3261 2.06714ZM30.3972 33.509C31.1766 34.4844 32.1119 35.588 32.1119 35.588C37.8537 35.4084 40.0621 31.6867 40.0621 31.6867C40.0621 23.422 36.3209 16.723 36.3209 16.723C32.5796 13.951 29.0202 14.028 29.0202 14.028L28.6565 14.4387C33.0732 15.7734 35.1257 17.6984 35.1257 17.6984C32.4237 16.2354 29.7736 15.5167 27.3055 15.2344C25.4348 15.029 23.6421 15.0804 22.0573 15.2857C21.9212 15.2857 21.8049 15.3052 21.6739 15.3273C21.6548 15.3305 21.6354 15.3338 21.6156 15.337C20.7063 15.414 18.4979 15.7477 15.718 16.954C14.7567 17.3904 14.1851 17.6984 14.1851 17.6984C14.1851 17.6984 16.3415 15.6707 21.0181 14.336L20.7583 14.028C20.7583 14.028 17.1989 13.951 13.4576 16.723C13.4576 16.723 9.71635 23.422 9.71635 31.6867C9.71635 31.6867 11.8988 35.4084 17.6405 35.588C17.6405 35.588 18.6018 34.433 19.3813 33.4577C16.0817 32.4824 14.8346 30.429 14.8346 30.429C14.8346 30.429 15.0944 30.6087 15.5621 30.8654C15.588 30.891 15.614 30.9167 15.666 30.9424C15.705 30.968 15.7439 30.9873 15.7829 31.0065C15.8219 31.0258 15.8608 31.045 15.8998 31.0707C16.5493 31.43 17.1989 31.7124 17.7964 31.9434C18.8616 32.354 20.1347 32.7647 21.6156 33.047C23.5642 33.4064 25.8505 33.5347 28.3447 33.0727C29.5658 32.8674 30.8129 32.508 32.1119 31.969C33.0213 31.6354 34.0345 31.1477 35.0997 30.4547C35.0997 30.4547 33.8007 32.5594 30.3972 33.509Z" fill="#7289DA"/>
</g>
</g>
</g>
</g>
</svg>
