<svg width="96" height="96" shape-rendering="geometricPrecision" viewBox="0 0 96 96" fill="none"
    xmlns="http://www.w3.org/2000/svg">
    <g id="Facebook">
        <g id="Facebook_2">
            <path id="Path" d="M96 48C96 21.4876 74.5124 0 48 0C21.4876 0 0 21.4876 0 48C0 71.9626 17.55 91.8188 40.5 95.4188V61.875H28.3124V48H40.5V37.425C40.5 25.3968 47.6626 18.75 58.6312 18.75C63.8812 18.75 69.375 19.6875 69.375 19.6875V31.5H63.3188C57.3562 31.5 55.5 35.2032 55.5 39V48H68.8124L66.6844 61.875H55.5V95.4188C78.45 91.8188 96 71.9626 96 48Z" fill="#1877F2"/>
            <path id="Path_2" d="M66.6844 61.875L68.8124 48H55.5V39C55.5 35.2032 57.3562 31.5 63.3188 31.5H69.375V19.6875C69.375 19.6875 63.8812 18.75 58.6312 18.75C47.6626 18.75 40.5 25.3968 40.5 37.425V48H28.3124V61.875H40.5V95.4188C42.9468 95.8032 45.45 96 48 96C50.55 96 53.0532 95.8032 55.5 95.4188V61.875H66.6844Z" fill="white"/>
        </g>
    </g>
</svg>
