<svg width="48" height="50" viewBox="0 0 48 50" fill="none" xmlns="http://www.w3.org/2000/svg">
<g id="Github">
<rect id="Rectangle 17" x="2" y="6" width="43" height="43" rx="21.5" fill="black"/>
<g id="Github_2">
<path id="Fill-4" d="M24.0002 0C10.747 0 0 11.2484 0 25.1246C0 36.2254 6.87679 45.6431 16.4128 48.9653C17.6123 49.1979 18.0526 48.4203 18.0526 47.7567C18.0526 47.1576 18.0304 45.1784 18.02 43.079C11.3431 44.5989 9.93424 40.1146 9.93424 40.1146C8.84249 37.2106 7.26945 36.4384 7.26945 36.4384C5.09191 34.879 7.43359 34.911 7.43359 34.911C9.84363 35.0883 11.1126 37.5001 11.1126 37.5001C13.2532 41.3412 16.7272 40.2307 18.0967 39.5887C18.3121 37.9649 18.9341 36.8565 19.6205 36.2291C14.2897 35.5938 8.6859 33.4395 8.6859 23.8124C8.6859 21.0694 9.62345 18.8281 11.1587 17.0686C10.9095 16.4358 10.088 13.8804 11.3912 10.4196C11.3912 10.4196 13.4066 9.74439 17.993 12.995C19.9074 12.4383 21.9606 12.1592 24.0002 12.1496C26.0398 12.1592 28.0946 12.4383 30.0126 12.995C34.5934 9.74439 36.606 10.4196 36.606 10.4196C37.9124 13.8804 37.0905 16.4358 36.8413 17.0686C38.3801 18.8281 39.3113 21.0694 39.3113 23.8124C39.3113 33.4623 33.6968 35.5871 28.3525 36.2091C29.2133 36.9888 29.9804 38.5178 29.9804 40.8619C29.9804 44.2236 29.9526 46.9292 29.9526 47.7567C29.9526 48.4253 30.3846 49.2087 31.6011 48.962C41.132 45.6361 48 36.2216 48 25.1246C48 11.2484 37.2546 0 24.0002 0" fill="white"/>
<path id="Fill-5" d="M9.16142 35.9011C9.10862 36.0247 8.92121 36.0618 8.75048 35.9769C8.57657 35.8958 8.4789 35.7273 8.53528 35.6032C8.58689 35.4759 8.7747 35.4405 8.94821 35.5258C9.12251 35.607 9.22178 35.7771 9.16142 35.9011" fill="#161514"/>
<path id="Fill-6" d="M10.1317 37.0249C10.0174 37.1349 9.79385 37.0838 9.64217 36.91C9.48534 36.7365 9.45596 36.5046 9.57189 36.3929C9.68982 36.2829 9.90661 36.3344 10.0638 36.5079C10.2207 36.6834 10.2512 36.9137 10.1317 37.0249" fill="#161514"/>
<path id="Fill-7" d="M11.0763 38.4577C10.9294 38.5636 10.6892 38.4643 10.5407 38.243C10.3938 38.0218 10.3938 37.7565 10.5438 37.6502C10.6927 37.5439 10.9294 37.6395 11.0799 37.8591C11.2264 38.084 11.2264 38.3493 11.0763 38.4577" fill="#161514"/>
<path id="Fill-8" d="M12.3705 39.8419C12.239 39.9922 11.9591 39.9519 11.7542 39.7467C11.5446 39.5461 11.4862 39.2614 11.6181 39.111C11.7511 38.9602 12.0326 39.0027 12.239 39.2062C12.4471 39.4064 12.5106 39.6931 12.3705 39.8419" fill="#161514"/>
<path id="Fill-9" d="M14.1557 40.6456C14.0978 40.8404 13.8282 40.929 13.5566 40.8462C13.2854 40.7609 13.1079 40.5327 13.1627 40.3357C13.2191 40.1396 13.4899 40.0474 13.7634 40.1359C14.0342 40.2208 14.2121 40.4474 14.1557 40.6456" fill="#161514"/>
<path id="Fill-10" d="M16.1162 40.7947C16.123 40.9999 15.8927 41.1701 15.6076 41.1738C15.3209 41.1804 15.0891 41.0143 15.0859 40.8125C15.0859 40.6052 15.311 40.4367 15.5977 40.4318C15.8828 40.426 16.1162 40.5908 16.1162 40.7947" fill="#161514"/>
<path id="Fill-11" d="M17.9406 40.4721C17.9748 40.6723 17.7766 40.8779 17.4935 40.9327C17.2152 40.9854 16.9575 40.8618 16.9222 40.6632C16.8876 40.4581 17.0893 40.2525 17.3673 40.1994C17.6508 40.1483 17.9045 40.2686 17.9406 40.4721" fill="#161514"/>
</g>
</g>
</svg>
